<svg width="512" height="512" viewBox="0 0 512 512" fill="none" xmlns="http://www.w3.org/2000/svg">
 <style>
    path {
        fill: black;
    }
    @media (prefers-color-scheme: dark) {
      path {
        fill: white;
      }
    }
  </style>
<path d="M336.372 466H75.1628C55.8735 466 64.4925 466 40 466V177.86C40 91.5164 86.8167 46 175.628 46H336.372C425.183 46 472 91.5164 472 177.86V334.14C472 420.484 425.183 466 336.372 466ZM175.628 75.3023C103.695 75.3023 70.1395 107.926 70.1395 177.86V436.698C78 436.698 72.3498 436.698 75.1628 436.698H336.372C408.305 436.698 441.86 404.074 441.86 334.14V177.86C441.86 107.926 408.305 75.3023 336.372 75.3023H175.628Z"/>
<path d="M331.451 222.814H130.521C122.283 222.814 115.451 216.172 115.451 208.163C115.451 200.153 122.283 193.512 130.521 193.512H331.451C339.69 193.512 346.521 200.153 346.521 208.163C346.521 216.172 339.69 222.814 331.451 222.814Z"/>
<path d="M271.172 320.488H130.521C122.283 320.488 115.451 313.846 115.451 305.837C115.451 297.828 122.283 291.186 130.521 291.186H271.172C279.411 291.186 286.242 297.828 286.242 305.837C286.242 313.846 279.411 320.488 271.172 320.488Z"/>
</svg>
